<svg xmlns="http://www.w3.org/2000/svg" xmlns:xlink="http://www.w3.org/1999/xlink" width="700" height="1080" viewBox="0 0 700 1080"><defs><style>.a{fill:#fff;}.b{fill:none;}.c{clip-path:url(#a);}.d{opacity:0.05;clip-path:url(#b);}</style><clipPath id="a"><rect class="a" width="700" height="1080"/></clipPath><clipPath id="b"><rect class="b" width="1399.907" height="1062.814"/></clipPath></defs><g class="c"><g class="d" transform="translate(-700 9)"><path d="M699.953,1062.512l-.656.3v-.6l-120.522-55.487s-16.69-11.766-19.427-27.908c.274.273-2.12-12.518,24.351-28.456s81.537-35.3,81.537-35.3,20.247-6.02,29-6.566c3.1-.194,4.806-.25,5.712-.242.906-.008,2.61.049,5.712.242,8.755.546,29,6.566,29,6.566s55.064,19.358,81.536,35.3,24.078,28.729,24.351,28.456c-2.736,16.142-19.427,27.908-19.427,27.908L700.609,1062.21v.6Zm548.583-21.282c-27.429-39.621-82.288-59.939-81.272-61.97,80.47-62.588,97.792-114.489,98.518-115.962-73.151,66.859-203.157,84.468-200.109,83.453S966.114,933.543,965.1,931.512c175.005-33,303.744-132.942,305.787-134.119-8.127-119.857-16.254-139.16-15.238-139.16-24.843-160.981-118.7-345.288-121.836-352.315,21.309,59.991,42.594,172.5,41.579,169.565,30.477,130.149,17.271,273.166,17.271,271.134-51.811,53.843-153.4,94.479-153.4,92.447,83.3-77.208,95.5-117.844,94.479-117.844,10.159-74.162,4.063-158.482,5.08-157.466-9.143-193.023-68.066-273.279-68.066-274.295-52.827-100.575-186.926-177.783-186.926-176.768,30.477,24.382,67.216,66.034,66.034,65.018,47.748,45.716,89.4,142.227,89.4,142.227s-59.938,18.286-58.923,16.255c-14.223-46.732-84.32-107.686-84.32-107.686L922.43,313.84c5.08,38.6-26.413,54.859-26.413,54.859l-51.19,17.214-37.871,127.44,60.113-24.646s72.737-1.8,77.546-3.607,15.028-9.617,15.028-9.617,47.489-56.507,47.489-57.108c6.011,4.207,14.427,15.028,13.826,16.231,11.422,36.068,4.207,46.287,4.207,46.287l-22.242,51.1-85.36,48.091,158.7-53.5s27.652-89.267,27.652-85.361v15.629s6.612,66.124-5.41,123.232-36.669,99.185-48.692,119.023-28.253,29.455-46.888,28.253-31.258-25.248-31.258-25.248l84.758-124.433s-20.438,19.687-28.253,25.848-31.86,25.248-31.259,24.646c-42.68,29.456-83.557-2.4-83.557-2.4l-85.961-84.758L941.609,715.333l30.056,127.894s-96.181,73.483-104.6,75.287-30.657,0-30.657,0L699.953,863.54,563.495,918.514s-22.241,1.8-30.657,0-104.6-75.287-104.6-75.287L458.3,715.333,572.512,541.005,486.55,625.764s-40.876,31.861-83.556,2.4c.6.6-23.445-18.484-31.259-24.646s-28.253-25.848-28.253-25.848l84.758,124.433s-12.623,24.045-31.258,25.248-34.866-8.415-46.888-28.253-36.67-61.916-48.692-119.023-5.41-123.232-5.41-123.232V441.218c0-3.907,27.652,85.361,27.652,85.361l158.7,53.5-85.36-48.091-22.242-51.1s-7.214-10.22,4.207-46.287c-.6-1.2,7.815-12.023,13.826-16.231,0,.6,47.489,57.108,47.489,57.108s10.219,7.814,15.027,9.617,77.547,3.607,77.547,3.607l60.113,24.646L555.08,385.914,503.889,368.7S472.4,352.445,477.475,313.84L503.889,228.5s-70.1,60.954-84.32,107.686c1.015,2.031-58.923-16.255-58.923-16.255s41.652-96.511,89.4-142.227c-1.182,1.016,35.557-40.636,66.034-65.018,0-1.015-134.1,76.193-186.926,176.768,0,1.016-58.923,81.272-68.066,274.295,1.016-1.016-5.08,83.3,5.08,157.466-1.016,0,11.174,40.636,94.479,117.844,0,2.032-101.591-38.6-153.4-92.447,0,2.032-13.207-140.985,17.271-271.134-1.015,2.931,20.271-109.574,41.579-169.565-3.139,7.027-96.993,191.335-121.836,352.315,1.015,0-7.11,19.3-15.238,139.16,2.043,1.178,130.782,101.118,305.787,134.119-1.016,2.031-103.623,14.223-100.576,15.239S207.274,930.157,134.123,863.3c.726,1.473,18.049,53.374,98.518,115.962,1.016,2.031-53.842,22.35-81.273,61.97,0,1.016-64-88.385-74.161-202.166C75.181,838.051,17.567,880.5.133,905.918c1.983-5.77,4.755-137.726,86.218-261.908C84.32,644.01,0,674.487,0,674.487s46.736-125.968,144.25-246.853c-1.331.426-69.348,12.886-85.327-5.091,1.016,1.016,140.2-54.859,217.4-163.562,0-.308-8.582.317-20.686.942-27.841,1.437-74.318,2.875-77.857-7.037,2.031,2.031,135.115-27.43,187.942-112.766-1.016-1.016-51.811-17.271-51.811-17.271L623.766,19.228l76.187,31.323,76.186-31.323L1085.991,122.85s-50.8,16.255-51.811,17.271c52.827,85.335,185.91,114.8,187.943,112.766-3.541,9.913-50.017,8.474-77.858,7.037-12.1-.626-20.685-1.25-20.685-.942,77.208,108.7,216.388,164.578,217.4,163.562-15.979,17.977-84,5.517-85.327,5.091,97.515,120.886,144.249,246.853,144.249,246.853s-84.32-30.477-86.351-30.477c81.463,124.182,84.235,256.138,86.217,261.908-17.433-25.421-75.047-67.867-77.074-66.855-10.1,113.143-73.445,202.177-74.156,202.175C1248.538,1041.238,1248.536,1041.235,1248.536,1041.23ZM548.789,693.99l121.5,108.3,29.662,40.056,29.661-40.056,121.5-108.3-70-51.506L700.609,678.87v.593l-.656-.3-.656.3v-.593l-80.512-36.387Zm850.983,211.928.134.2C1399.861,906.115,1399.817,906.049,1399.772,905.918Zm-1399.639,0c-.045.13-.089.2-.134.2Zm699.82-108.87-.656,1.014v-2.028L633.88,694.945H584.4l32.831-29.131,82.72,35.784,82.719-35.784L815.5,694.945H766.026l-65.417,101.09v2.028ZM896.507,403.359c0-1.2,30.658-7.815,46.287-12.623a30.168,30.168,0,0,0,3.921-.559c8.515-1.254,26.979-2.508,14.714,19.193-.6,0-18.635,24.646-39.675,31.259-.6,1.2-33.664,4.208-43.883,10.821-.6.6-11.421,4.809-11.421,4.809S878.474,418.989,896.507,403.359ZM522.033,451.45c-10.219-6.612-43.281-9.618-43.882-10.821-21.039-6.612-39.074-31.259-39.675-31.259-12.266-21.7,6.2-20.447,14.713-19.193a30.19,30.19,0,0,0,3.922.559c15.629,4.809,46.287,11.421,46.287,12.623,18.033,15.629,30.056,52.9,30.056,52.9S522.635,452.051,522.033,451.45ZM1155.6,77.546c0-.153-4.244.428-11.686,1.009-21.933,1.711-71.646,3.423-122.366-13.633,0,.6-4.208-3.606-4.208-3.606L1165.214,0s45.686,102.793,43.281,122.63c0-.6-6.612,47.489-18.033,79.349a.011.011,0,0,1-.008,0C1189.73,201.991,1172.365,123.062,1155.6,77.546ZM209.444,201.98c-11.422-31.86-18.034-79.951-18.034-79.349C189.006,102.793,234.692,0,234.692,0L382.569,61.315s-4.207,4.208-4.207,3.606C327.642,81.977,277.928,80.266,256,78.555c-7.441-.581-11.685-1.162-11.685-1.009-16.769,45.516-34.135,124.445-34.858,124.437A.011.011,0,0,1,209.444,201.98Z" transform="translate(0.001)"/></g></g></svg>