<?xml version="1.0" encoding="UTF-8"?>
<svg width="72px" height="72px" viewBox="0 0 72 72" version="1.1" xmlns="http://www.w3.org/2000/svg" xmlns:xlink="http://www.w3.org/1999/xlink">
    <title>Illustration/nationwide delivery Copy 3</title>
    <g id="Marketing" stroke="none" stroke-width="1" fill="none" fill-rule="evenodd">
        <g id="redx-homepage-redesign-concept-expanded" transform="translate(-535.000000, -1473.000000)">
            <g id="../Illustration/nationwide-delivery-Copy-3" transform="translate(536.000000, 1474.000000)">
                <g id="Group-21">
                    <g id="Group-13" stroke="#000000" stroke-linecap="round" stroke-linejoin="round" stroke-width="3">
                        <path d="M12.2001,6.0376 L5.7001,6.0376 C2.8301,6.0376 0.5001,8.3676 0.5001,11.2376 L0.5001,52.8376 C0.5001,55.7076 2.8301,58.0376 5.7001,58.0376 L40.9771,58.0376" id="Stroke-1"></path>
                        <path d="M50.8002,6.0376 L57.3102,6.0376 C60.1802,6.0376 62.5002,8.3676 62.5002,11.2376 L62.5002,42.6516" id="Stroke-3"></path>
                        <line x1="44.9701" y1="6.0376" x2="18.0401" y2="6.0376" id="Stroke-5"></line>
                        <path d="M46.4315,0.5 C45.6265,0.5 44.9735,1.116 44.9735,1.876 L44.9735,10.135 C44.9735,10.895 45.6265,11.511 46.4315,11.511 L49.3475,11.511 C50.1525,11.511 50.8045,10.895 50.8045,10.135 L50.8045,1.876 C50.8045,1.116 50.1525,0.5 49.3475,0.5 L46.4315,0.5 Z" id="Stroke-7"></path>
                        <path d="M13.662,0.5 C12.857,0.5 12.204,1.116 12.204,1.876 L12.204,10.135 C12.204,10.895 12.857,11.511 13.662,11.511 L16.578,11.511 C17.383,11.511 18.035,10.895 18.035,10.135 L18.035,1.876 C18.035,1.116 17.383,0.5 16.578,0.5 L13.662,0.5 Z" id="Stroke-9"></path>
                        <line x1="0.8705" y1="18.7212" x2="62.3025" y2="18.7212" id="Stroke-11"></line>
                    </g>
                    <g id="Group-20" transform="translate(41.000000, 41.000000)">
                        <path d="M10.33,8.4814 C11.246,8.4814 11.942,8.7584 12.419,9.3114 C12.896,9.8644 13.135,10.6124 13.135,11.5534 L13.135,12.5264 L14.013,12.5264 L14.013,14.1294 L13.135,14.1294 L13.135,17.9264 C13.135,18.4224 13.288,18.8014 13.593,19.0624 C13.898,19.3224 14.286,19.4534 14.757,19.4534 C15.622,19.4534 16.344,19.1134 16.922,18.4324 C17.501,17.7524 17.791,16.9474 17.791,16.0184 C17.791,14.7214 17.129,14.0724 15.806,14.0724 C15.526,14.0724 15.266,14.0984 15.024,14.1484 L15.024,12.5264 C15.342,12.4764 15.685,12.4504 16.054,12.4504 C17.212,12.4504 18.096,12.7724 18.706,13.4144 C19.317,14.0564 19.622,14.9244 19.622,16.0184 C19.622,17.3794 19.171,18.5594 18.268,19.5584 C17.364,20.5574 16.194,21.0564 14.757,21.0564 C13.79,21.0564 12.976,20.7764 12.314,20.2164 C11.653,19.6564 11.322,18.8934 11.322,17.9264 L11.322,14.1294 L9.681,14.1294 L9.681,12.5264 L11.322,12.5264 L11.322,11.7634 C11.322,11.2294 11.21,10.8284 10.988,10.5614 C10.766,10.2934 10.406,10.1604 9.91,10.1604 C9.605,10.1604 9.388,10.1734 9.261,10.1984 L9.261,8.5954 C9.643,8.5194 9.999,8.4814 10.33,8.4814" id="Fill-14" fill="#EB2127"></path>
                        <path d="M10.33,8.4814 C11.246,8.4814 11.942,8.7584 12.419,9.3114 C12.896,9.8644 13.135,10.6124 13.135,11.5534 L13.135,12.5264 L14.013,12.5264 L14.013,14.1294 L13.135,14.1294 L13.135,17.9264 C13.135,18.4224 13.288,18.8014 13.593,19.0624 C13.898,19.3224 14.286,19.4534 14.757,19.4534 C15.622,19.4534 16.344,19.1134 16.922,18.4324 C17.501,17.7524 17.791,16.9474 17.791,16.0184 C17.791,14.7214 17.129,14.0724 15.806,14.0724 C15.526,14.0724 15.266,14.0984 15.024,14.1484 L15.024,12.5264 C15.342,12.4764 15.685,12.4504 16.054,12.4504 C17.212,12.4504 18.096,12.7724 18.706,13.4144 C19.317,14.0564 19.622,14.9244 19.622,16.0184 C19.622,17.3794 19.171,18.5594 18.268,19.5584 C17.364,20.5574 16.194,21.0564 14.757,21.0564 C13.79,21.0564 12.976,20.7764 12.314,20.2164 C11.653,19.6564 11.322,18.8934 11.322,17.9264 L11.322,14.1294 L9.681,14.1294 L9.681,12.5264 L11.322,12.5264 L11.322,11.7634 C11.322,11.2294 11.21,10.8284 10.988,10.5614 C10.766,10.2934 10.406,10.1604 9.91,10.1604 C9.605,10.1604 9.388,10.1734 9.261,10.1984 L9.261,8.5954 C9.643,8.5194 9.999,8.4814 10.33,8.4814 Z" id="Stroke-16" stroke="#EB2127" stroke-width="0.5" stroke-linecap="round" stroke-linejoin="round"></path>
                        <path d="M28.4999,14.4419 C28.4999,22.2059 22.2059,28.4999 14.4419,28.4999 C6.6779,28.4999 0.3829,22.2059 0.3829,14.4419 C0.3829,6.6779 6.6779,0.3829 14.4419,0.3829 C22.2059,0.3829 28.4999,6.6779 28.4999,14.4419 Z" id="Stroke-18" stroke="#EB2127" stroke-width="3" stroke-linecap="round" stroke-linejoin="round"></path>
                    </g>
                </g>
            </g>
        </g>
    </g>
</svg>