<?xml version="1.0" encoding="UTF-8"?>
<svg width="74px" height="71px" viewBox="0 0 74 71" version="1.1" xmlns="http://www.w3.org/2000/svg" xmlns:xlink="http://www.w3.org/1999/xlink">
    <title>Illustration/nationwide delivery Copy 5</title>
    <g id="Marketing" stroke="none" stroke-width="1" fill="none" fill-rule="evenodd">
        <g id="redx-homepage-redesign-concept-expanded" transform="translate(-934.000000, -1477.000000)">
            <g id="../Illustration/nationwide-delivery-Copy-5" transform="translate(935.000000, 1478.000000)">
                <g id="Group-15">
                    <path d="M31.8555,25.127 C32.7715,25.127 33.4675,25.404 33.9445,25.957 C34.4215,26.51 34.6605,27.258 34.6605,28.199 L34.6605,29.172 L35.5385,29.172 L35.5385,30.775 L34.6605,30.775 L34.6605,34.572 C34.6605,35.068 34.8135,35.447 35.1185,35.708 C35.4235,35.968 35.8115,36.099 36.2825,36.099 C37.1475,36.099 37.8695,35.759 38.4475,35.078 C39.0265,34.398 39.3165,33.593 39.3165,32.664 C39.3165,31.367 38.6545,30.718 37.3315,30.718 C37.0515,30.718 36.7915,30.744 36.5495,30.794 L36.5495,29.172 C36.8675,29.122 37.2105,29.096 37.5795,29.096 C38.7375,29.096 39.6215,29.418 40.2315,30.06 C40.8425,30.702 41.1475,31.57 41.1475,32.664 C41.1475,34.025 40.6965,35.205 39.7935,36.204 C38.8895,37.203 37.7195,37.702 36.2825,37.702 C35.3155,37.702 34.5015,37.422 33.8395,36.862 C33.1785,36.302 32.8475,35.539 32.8475,34.572 L32.8475,30.775 L31.2065,30.775 L31.2065,29.172 L32.8475,29.172 L32.8475,28.409 C32.8475,27.875 32.7355,27.474 32.5135,27.207 C32.2915,26.939 31.9315,26.806 31.4355,26.806 C31.1305,26.806 30.9135,26.819 30.7865,26.844 L30.7865,25.241 C31.1685,25.165 31.5245,25.127 31.8555,25.127" id="Fill-1" fill="#EB2127"></path>
                    <path d="M31.8555,25.127 C32.7715,25.127 33.4675,25.404 33.9445,25.957 C34.4215,26.51 34.6605,27.258 34.6605,28.199 L34.6605,29.172 L35.5385,29.172 L35.5385,30.775 L34.6605,30.775 L34.6605,34.572 C34.6605,35.068 34.8135,35.447 35.1185,35.708 C35.4235,35.968 35.8115,36.099 36.2825,36.099 C37.1475,36.099 37.8695,35.759 38.4475,35.078 C39.0265,34.398 39.3165,33.593 39.3165,32.664 C39.3165,31.367 38.6545,30.718 37.3315,30.718 C37.0515,30.718 36.7915,30.744 36.5495,30.794 L36.5495,29.172 C36.8675,29.122 37.2105,29.096 37.5795,29.096 C38.7375,29.096 39.6215,29.418 40.2315,30.06 C40.8425,30.702 41.1475,31.57 41.1475,32.664 C41.1475,34.025 40.6965,35.205 39.7935,36.204 C38.8895,37.203 37.7195,37.702 36.2825,37.702 C35.3155,37.702 34.5015,37.422 33.8395,36.862 C33.1785,36.302 32.8475,35.539 32.8475,34.572 L32.8475,30.775 L31.2065,30.775 L31.2065,29.172 L32.8475,29.172 L32.8475,28.409 C32.8475,27.875 32.7355,27.474 32.5135,27.207 C32.2915,26.939 31.9315,26.806 31.4355,26.806 C31.1305,26.806 30.9135,26.819 30.7865,26.844 L30.7865,25.241 C31.1685,25.165 31.5245,25.127 31.8555,25.127 Z" id="Stroke-3" stroke="#EB2127" stroke-width="0.5" stroke-linecap="round" stroke-linejoin="round"></path>
                    <path d="M50.0254,31.0869 C50.0254,38.8509 43.7314,45.1449 35.9674,45.1449 C28.2034,45.1449 21.9094,38.8509 21.9094,31.0869 C21.9094,23.3229 28.2034,17.0279 35.9674,17.0279 C43.7314,17.0279 50.0254,23.3229 50.0254,31.0869 Z" id="Stroke-5" stroke="#EB2127" stroke-width="3" stroke-linecap="round" stroke-linejoin="round"></path>
                    <path d="M0.9229,48.21 L0.9229,51.114 C0.9229,54.592 3.7519,57.422 7.2299,57.422 L64.7799,57.422 C68.2579,57.422 71.0879,54.592 71.0879,51.114 L71.0869,13.728 C71.0869,10.261 68.2579,7.422 64.7799,7.422 L7.2299,7.422 C3.7509,7.422 0.9229,10.261 0.9229,13.738 L0.9229,16.642 C0.9229,16.642 0.8139,48.319 0.9229,48.21 Z" id="Stroke-7" stroke="#000000" stroke-width="3" stroke-linecap="round" stroke-linejoin="round"></path>
                    <line x1="16.4463" y1="0.5" x2="0.5003" y2="0.5" id="Stroke-9" stroke="#000000" stroke-width="3" stroke-linecap="round" stroke-linejoin="round"></line>
                    <line x1="38.5044" y1="68.3897" x2="30.0584" y2="68.3897" id="Stroke-11" stroke="#000000" stroke-width="3" stroke-linecap="round" stroke-linejoin="round"></line>
                    <line x1="69.1782" y1="62.8404" x2="46.4282" y2="62.8404" id="Stroke-13" stroke="#000000" stroke-width="3" stroke-linecap="round" stroke-linejoin="round"></line>
                </g>
            </g>
        </g>
    </g>
</svg>