<?xml version="1.0" encoding="UTF-8"?>
<svg width="73px" height="72px" viewBox="0 0 73 72" version="1.1" xmlns="http://www.w3.org/2000/svg" xmlns:xlink="http://www.w3.org/1999/xlink">
    <title>Illustration/nationwide delivery Copy 2</title>
    <g id="Marketing" stroke="none" stroke-width="1" fill="none" fill-rule="evenodd">
        <g id="redx-homepage-redesign-concept-expanded" transform="translate(-535.000000, -1614.000000)">
            <g id="../Illustration/nationwide-delivery-Copy-2" transform="translate(536.000000, 1615.000000)">
                <g id="Group-24">
                    <g id="Group-7" stroke-linecap="round" stroke-linejoin="round" stroke-width="3">
                        <path d="M43.6138,54.2091 L43.6138,64.1441 C43.6138,67.0891 41.2038,69.5001 38.2578,69.5001 L5.8558,69.5001 C2.9098,69.5001 0.4998,67.0891 0.4998,64.1441 L0.4998,5.8561 C0.4998,2.9101 2.9098,0.5001 5.8558,0.5001 L38.2578,0.5001 C41.2038,0.5001 43.6138,2.9101 43.6138,5.8561 L43.6138,5.1401" id="Stroke-1" stroke="#000000"></path>
                        <line x1="17.6402" y1="62.15" x2="26.4732" y2="62.15" id="Stroke-3" stroke="#000000"></line>
                        <path d="M69.5464,29.8956 C69.5464,43.0986 58.8424,53.8026 45.6394,53.8026 C32.4364,53.8026 21.7324,43.0986 21.7324,29.8956 C21.7324,16.6916 32.4364,5.9886 45.6394,5.9886 C58.8424,5.9886 69.5464,16.6916 69.5464,29.8956 Z" id="Stroke-5" stroke="#EB2127"></path>
                    </g>
                    <polygon id="Fill-8" fill="#DE423A" points="33.6919 19.4068 45.5389 20.9518 42.7289 30.7858"></polygon>
                    <g id="Group-23" transform="translate(33.000000, 21.000000)" fill="#DE423A">
                        <path d="M12.9605,-0.0009 L21.7635,11.7061 L11.6025,16.5761 L10.3375,11.4251 C10.3375,11.4251 10.0105,9.5521 10.5255,8.1001 L12.9605,-0.0009 Z" id="Fill-9"></path>
                        <polygon id="Fill-11" points="22.0913 11.6119 18.8133 7.0229 24.3393 6.0869"></polygon>
                        <polygon id="Fill-13" points="24.7603 6.0865 26.8213 8.2875 23.8233 8.2875"></polygon>
                        <polygon id="Fill-15" points="13.3819 16.2481 21.7639 12.0801 21.4829 13.0631"></polygon>
                        <polygon id="Fill-17" points="9.729 10.816 6.217 22.616 11.556 18.402"></polygon>
                        <polygon id="Fill-19" points="5.2808 4.7286 1.8628 0.3736 0.5518 0.4206"></polygon>
                        <path d="M10.2632,10.774 C10.2932,11.169 10.3382,11.425 10.3382,11.425 L11.6022,16.576 L21.7632,11.706 L21.6712,11.582 L10.2632,10.774 Z" id="Fill-21"></path>
                    </g>
                </g>
            </g>
        </g>
    </g>
</svg>