<?xml version="1.0" encoding="UTF-8"?>
<svg width="72px" height="72px" viewBox="0 0 72 72" version="1.1" xmlns="http://www.w3.org/2000/svg" xmlns:xlink="http://www.w3.org/1999/xlink">
    <title>Illustration/nationwide delivery</title>
    <defs>
        <path d="M0.309,9.712 C0.149,9.974 0.225780492,10.318 0.486,10.48 L0.486,10.48 C0.746,10.641 1.09,10.563 1.25,10.302 L1.25,10.302 C4.49,5.062 10.083,1.933 16.213,1.933 L16.213,1.933 C25.919,1.933 33.816,9.867 33.816,19.628 L33.816,19.628 C33.816,29.389 25.919,37.328 16.213,37.328 L16.213,37.328 C13.77,37.328 11.407,36.839 9.186,35.864 L9.186,35.864 C8.903,35.742 8.577,35.875 8.455,36.154 L8.455,36.154 C8.333,36.437 8.46,36.766 8.743,36.888 L8.743,36.888 C11.107,37.924 13.615,38.447 16.213,38.447 L16.213,38.447 C26.529,38.447 34.924,30.001 34.924,19.628 L34.924,19.628 C34.924,9.255 26.529,0.814 16.213,0.814 L16.213,0.814 C9.7,0.814 3.753,4.143 0.309,9.712 L0.309,9.712 Z" id="path-1"></path>
        <path d="M19.115,0.034 C18.807,0.039 18.558,0.291 18.563,0.597 L18.563,0.597 C18.566,0.904 18.818,1.151 19.125,1.145 L19.125,1.145 C25.284,1.046 30.935,4.068 34.242,9.229 L34.242,9.229 C39.478,17.403 37.056,28.332 28.837,33.597 L28.837,33.597 C20.618,38.862 9.674,36.495 4.437,28.322 L4.437,28.322 C3.121,26.265 2.258,24.01 1.881,21.615 L1.881,21.615 C1.831,21.311 1.542,21.108 1.242,21.155 L1.242,21.155 C0.937,21.206 0.729,21.49 0.779,21.794 L0.779,21.794 C1.182,24.344 2.095,26.739 3.495,28.926 L3.495,28.926 C9.06,37.612 20.7,40.124 29.435,34.529 L29.435,34.529 C38.169,28.934 40.749,17.312 35.185,8.625 L35.185,8.625 C31.727,3.228 25.848,0.031 19.421,0.0319997655 L19.421,0.0319997655 C19.319,0.0319997655 19.217,0.0319997655 19.115,0.034 L19.115,0.034 Z" id="path-3"></path>
        <polygon id="path-5" points="0.218 0.439 1.182 7.054 7.672 5.606 7.433 4.52 2.106 5.712 1.315 0.278"></polygon>
    </defs>
    <g id="Marketing" stroke="none" stroke-width="1" fill="none" fill-rule="evenodd">
        <g id="redx-homepage-redesign-concept-expanded" transform="translate(-535.000000, -1751.000000)">
            <g id="../Illustration/nationwide-delivery" transform="translate(536.000000, 1751.000000)">
                <g id="Group-18">
                    <path d="M32.1411,24.4235 L25.7101,25.1285 C25.6111,25.1385 25.5091,25.1295 25.4131,25.0995 L18.8281,23.0645 C18.4771,22.9555 18.2601,22.6045 18.3201,22.2415 L18.8941,18.7995 L18.3321,16.5535 C18.2971,16.4135 18.3051,16.2645 18.3531,16.1285 L18.8151,14.8345 L17.3961,13.0285 L17.1291,14.2565 C17.0411,14.6645 16.6321,14.9165 16.2281,14.8125 L12.0371,13.7355 C11.7961,13.6735 11.6021,13.4925 11.5231,13.2555 L10.4231,9.9525 L9.6901,9.5865 L8.9341,11.1825 C8.7231,11.6275 8.1441,11.7435 7.7781,11.4145 L3.6891,7.7345 L3.1801,8.6955 L4.5641,9.9875 C4.9291,10.3285 4.8561,10.9245 4.4201,11.1675 L1.7661,12.6475 L1.2781,16.3615 L10.4551,22.0975 C10.8071,22.3175 10.9071,22.7845 10.6771,23.1295 L9.9591,24.2065 C9.8231,24.4105 9.5931,24.5335 9.3471,24.5335 L4.5661,24.5335 L0.5001,29.9555 L3.4371,32.8925 L8.1201,35.2345 C8.4801,35.4145 8.6281,35.8525 8.4511,36.2155 L5.6951,41.8375 L7.8191,43.8605 C7.9951,44.0275 8.0771,44.2725 8.0371,44.5125 L7.7751,46.0845 L9.6201,46.8225 C9.9511,46.9555 10.1401,47.3055 10.0671,47.6545 L9.5001,50.3725 L11.3811,58.7175 L11.3991,58.8795 L11.3991,61.3805 L11.5691,61.0545 C11.8651,60.4855 12.6691,60.5545 12.8971,61.1035 L13.0531,60.1925 C13.1911,59.3845 14.3471,59.3745 14.4991,60.1795 C14.6131,60.7795 14.7151,61.3145 14.8061,61.7815 C14.9401,61.4665 15.0921,61.1205 15.2601,60.7385 C15.5581,60.0615 16.5561,60.1985 16.6601,60.9305 L16.7881,61.8295 L17.3011,60.7245 C17.6331,60.0105 18.7031,60.2475 18.7031,61.0345 L18.7031,62.2395 L18.9091,62.1365 L18.9091,59.3585 C18.9091,58.6435 19.8271,58.3495 20.2421,58.9305 L22.0381,61.4455 C22.1271,61.5695 22.1751,61.7195 22.1751,61.8725 L22.1751,62.6945 L23.5681,62.6945 L28.0611,60.8315 L29.3261,57.7755 L29.3261,56.3325 L26.7991,52.1985 C26.7291,52.0835 26.6911,51.9505 26.6911,51.8155 L26.6911,47.5055 C26.6911,46.7265 27.7451,46.4825 28.0861,47.1825 L30.6701,52.4665 L33.5051,55.4105 L38.7281,55.7515 C38.9721,55.7675 39.1911,55.9025 39.3141,56.1115 L40.5121,58.1475 L40.5711,58.2755 L42.0081,62.3465 C42.0471,62.4585 42.0591,62.5775 42.0421,62.6945 L41.4941,66.5355 L43.1671,68.3135 C43.2641,68.4155 43.3291,68.5435 43.3541,68.6815 L43.6841,70.4435 C43.6991,70.4105 43.7151,70.3795 43.7341,70.3485 L45.7171,67.1155 C45.9521,66.7325 46.4721,66.6485 46.8161,66.9375 L48.5211,68.3695 L48.3331,64.4825 C48.2581,62.9355 48.2581,62.9355 48.2481,62.6795 L46.9431,52.0015 L45.6631,48.8605 C45.6111,48.7315 45.5961,48.5915 45.6201,48.4545 L45.9521,46.5735 L44.9411,42.5315 L44.8691,42.5855 C44.6241,42.7695 44.2911,42.7815 44.0331,42.6175 L42.9341,41.9185 L42.7681,41.9375 L42.7681,44.3925 C42.7681,44.7985 42.4391,45.1275 42.0331,45.1275 L41.6191,45.1275 L40.7091,46.0365 L41.4191,48.3685 C41.5191,48.6965 41.3791,49.0505 41.0811,49.2205 L38.5661,50.6575 C38.2351,50.8465 37.8141,50.7515 37.5971,50.4375 L34.1251,45.4085 L34.0521,45.2755 L32.4951,41.5635 C32.4081,41.3545 32.4221,41.1155 32.5331,40.9185 L35.1671,36.2485 C35.2831,36.0435 35.4901,35.9065 35.7231,35.8795 L39.1431,35.4855" id="Stroke-1" stroke="#000000" stroke-width="3" stroke-linecap="round" stroke-linejoin="round"></path>
                    <g id="Group-5" transform="translate(34.000000, 0.943400)">
                        <mask id="mask-2" fill="white">
                            <use xlink:href="#path-1"></use>
                        </mask>
                        <g id="Clip-4"></g>
                        <polygon id="Stroke-3" stroke="#EB2127" stroke-width="2" stroke-linecap="round" stroke-linejoin="round" mask="url(#mask-2)" points="-2.024 40.697 37.173 40.697 37.173 -1.435 -2.024 -1.435"></polygon>
                    </g>
                    <path d="M50.2124,39.3908 C47.6154,39.3908 45.1074,38.8678 42.7424,37.8318 C42.4604,37.7098 42.3334,37.3808 42.4544,37.0968 C42.5764,36.8188 42.9034,36.6848 43.1854,36.8078 C45.4064,37.7818 47.7704,38.2718 50.2124,38.2718 C59.9194,38.2718 67.8164,30.3318 67.8164,20.5718 C67.8164,10.8108 59.9194,2.8768 50.2124,2.8768 C44.0824,2.8768 38.4894,6.0058 35.2504,11.2448 C35.0894,11.5068 34.7464,11.5848 34.4864,11.4238 C34.2261805,11.2618 34.1494,10.9168 34.3094,10.6548 C37.7534,5.0868 43.7004,1.7578 50.2124,1.7578 C60.5284,1.7578 68.9234,10.1988 68.9234,20.5718 C68.9234,30.9448 60.5284,39.3908 50.2124,39.3908 Z" id="Stroke-6" stroke="#EB2127" stroke-width="2" stroke-linecap="round" stroke-linejoin="round"></path>
                    <g id="Group-10" transform="translate(31.000000, 1.943400)">
                        <mask id="mask-4" fill="white">
                            <use xlink:href="#path-3"></use>
                        </mask>
                        <g id="Clip-9"></g>
                        <polygon id="Stroke-8" stroke="#EB2127" stroke-width="2" stroke-linecap="round" stroke-linejoin="round" mask="url(#mask-4)" points="27.2422 -7.9432 48.3852 25.0618 12.9072 47.7878 -8.2358 14.7828"></polygon>
                    </g>
                    <path d="M34.4951,30.8688 C33.0941,28.6818 32.1821,26.2868 31.7791,23.7378 C31.7291,23.4338 31.9371,23.1498 32.2421,23.0988 C32.5421,23.0518 32.8311,23.2548 32.8801,23.5578 C33.2581,25.9538 34.1201,28.2088 35.4371,30.2648 C40.6731,38.4388 51.6191,40.8058 59.8371,35.5398 C68.0561,30.2758 70.4781,19.3468 65.2421,11.1728 C61.9351,6.0118 56.2841,2.9898 50.1251,3.0878 C49.8181,3.0948 49.5671,2.8478 49.5621,2.5408 C49.5581,2.2348 49.8071,1.9828 50.1141,1.9768 C56.6601,1.8738 62.6721,5.0858 66.1841,10.5688 C71.7491,19.2558 69.1691,30.8778 60.4341,36.4728 C51.7001,42.0678 40.0591,39.5558 34.4951,30.8688 Z" id="Stroke-11" stroke="#EB2127" stroke-width="2" stroke-linecap="round" stroke-linejoin="round"></path>
                    <g id="Group-15" transform="translate(33.000000, 4.943400)">
                        <mask id="mask-6" fill="white">
                            <use xlink:href="#path-5"></use>
                        </mask>
                        <g id="Clip-14"></g>
                        <polygon id="Stroke-13" stroke="#EB2127" stroke-width="2" stroke-linecap="round" stroke-linejoin="round" mask="url(#mask-6)" points="-2.031 9.303 9.922 9.303 9.922 -1.972 -2.031 -1.972"></polygon>
                    </g>
                    <polygon id="Stroke-16" stroke="#EB2127" stroke-width="2" stroke-linecap="round" stroke-linejoin="round" points="40.6719 10.549 40.4339 9.464 35.1069 10.655 34.3149 5.221 33.2179 5.382 34.1819 11.997"></polygon>
                </g>
            </g>
        </g>
    </g>
</svg>