<?xml version="1.0" encoding="UTF-8"?>
<svg width="72px" height="72px" viewBox="0 0 72 72" version="1.1" xmlns="http://www.w3.org/2000/svg" xmlns:xlink="http://www.w3.org/1999/xlink">
    <title>Illustration/nationwide delivery Copy 4</title>
    <g id="Marketing" stroke="none" stroke-width="1" fill="none" fill-rule="evenodd" stroke-linecap="round" stroke-linejoin="round">
        <g id="redx-homepage-redesign-concept-expanded" transform="translate(-935.000000, -1754.000000)" stroke-width="3">
            <g id="../Illustration/nationwide-delivery-Copy-4" transform="translate(936.000000, 1755.000000)">
                <g id="Group-17">
                    <path d="M34.3902,48.9601 L33.7202,49.9301 L23.6602,64.6501 L4.0102,35.9001 C1.7202,32.2301 0.5002,27.9901 0.5002,23.6601 C0.5002,10.8701 10.8702,0.5001 23.6602,0.5001 C27.9902,0.5001 32.2302,1.7201 35.9002,4.0101 C46.7202,10.7501 50.0502,24.9501 43.3702,35.7901" id="Stroke-1" stroke="#000000"></path>
                    <path d="M23.6587,32.1774 C18.9547,32.1774 15.1417,28.3644 15.1417,23.6604 C15.1417,18.9564 18.9547,15.1424 23.6587,15.1424 C28.3627,15.1424 32.1767,18.9564 32.1767,23.6604 C32.1767,28.3644 28.3627,32.1774 23.6587,32.1774 Z" id="Stroke-3" stroke="#000000"></path>
                    <path d="M65.5284,49.9337 C65.5284,58.5297 58.5354,65.5217 49.9404,65.5217 C40.5804,65.5217 33.6514,57.4077 34.3924,48.9147 C34.9134,40.7397 41.7424,34.3347 49.9404,34.3347 C58.7564,34.3347 65.5284,41.5637 65.5284,49.9337 Z" id="Stroke-5" stroke="#EB2127"></path>
                    <path d="M54.2115,49.9298 C54.2115,52.2878 52.2935,54.2058 49.9355,54.2058 C47.3675,54.2058 45.4665,51.9798 45.6695,49.6508 C45.8125,47.4078 47.6865,45.6508 49.9355,45.6508 C52.3535,45.6508 54.2115,47.6338 54.2115,49.9298 Z" id="Stroke-7" stroke="#EB2127"></path>
                    <line x1="69.5034" y1="49.9279" x2="65.5284" y2="49.9279" id="Stroke-9" stroke="#EB2127"></line>
                    <line x1="34.336" y1="49.9279" x2="30.361" y2="49.9279" id="Stroke-11" stroke="#EB2127"></line>
                    <line x1="49.937" y1="69.5036" x2="49.937" y2="65.5196" id="Stroke-13" stroke="#EB2127"></line>
                    <line x1="49.937" y1="34.3361" x2="49.937" y2="30.3531" id="Stroke-15" stroke="#EB2127"></line>
                </g>
            </g>
        </g>
    </g>
</svg>