<svg xmlns="http://www.w3.org/2000/svg" viewBox="0 0 100 100" enable-background="new 0 0 100 100"><style type="text/css">.st0{fill:#E9262A;} .st1{fill:#FFFFFF;} .st2{fill:none;stroke:#939598;stroke-width:0.8449;stroke-miterlimit:10;} .st3{fill:none;stroke:#00824D;stroke-width:1.9336;stroke-linecap:round;stroke-linejoin:round;stroke-miterlimit:10;} .st4{fill:#FFFFFF;stroke:#00824D;stroke-width:1.9336;stroke-linecap:round;stroke-linejoin:round;stroke-miterlimit:10;} .st5{fill:#FFFFFF;stroke:#00824D;stroke-width:1.7444;stroke-linecap:round;stroke-linejoin:round;stroke-miterlimit:10;} .st6{fill:#01834D;}</style><path d="M14 33.2h29.2v30.4H14z" class="st0"/><path d="M29.6 36.8h10.1v6H29.6zM10.8 61.3c.2-.1 1.5-2.8 5.4-4.5s11-1.7 14.2-1.9c3.1-.2 5.9.1 6.5.7.7.6 2.4 2.2 1.7 3.5 0 0-.6 1.6-1.4 2.2-.8.5-1.5 1.3-1.5 1.3s.8.5 2.2.1c1.3-.4 11.3-5.2 12.6-5.4 1.4-.1 3.3-.2 3.8 1.9s0 2.8-1.1 3.9-17.5 8.3-19.3 8.5c-1.9.4-22.8-1.5-22.8-1.5s-.4 0-.3-.7c0-.8 0-8.1 0-8.1z" class="st1"/><path d="M35.5 62.7" class="st2"/><path d="M10.7 71.2s.3-12.4 0-12.4-6.3.5-6.3.5v11.4l6.3.5z" class="st3"/><path id="XMLID_3_" d="M10.8 61.1s2.9-4.5 9.4-5.5 14.3-.8 15.8-.4c1.6.4 2.6 2.2 2.6 3.5 0 2-3.3 3.8-3.3 3.8" class="st4"/><path d="M25.8 61.7s9 1.2 11.5 1.1 10.8-4.7 12.3-5.2 3.6-1 4.7 1.7-.6 3.7-2.1 4.6c-1.5.8-14.5 6.6-16.4 7.3-1.9.7-3.3 1-7.9.7s-17.2-1.8-17.2-1.8" class="st4"/><path d="M60.1 23.2h19.5v35.7H60.1z" class="st0"/><path d="M73.5 55.8c0-.1 0-.1 0-.2 0-1.5 1.2-2.6 2.6-2.6.1 0 .2 0 .2 0V29.6c-.1 0-.2 0-.2 0-1.5 0-2.6-1.2-2.6-2.6 0-.1 0-.1 0-.2h-7.1c0 .1 0 .1 0 .2 0 1.5-1.2 2.6-2.6 2.6-.1 0-.2 0-.2 0V53c.1 0 .2 0 .2 0 1.5 0 2.6 1.2 2.6 2.6 0 .1 0 .1 0 .2h7.1zM90.7 51.8h-1.6s-5.1 4.5-9.5 4.5V40s-2.5-2.1-3.5-3.9c-1-1.8-1-1.6-1-1.6s-4.7 0-5 0-1.7-.9-1.5-2.6.8-2 1.7-2.1c.9 0 7.9.3 8.9.2 1.1-.1 5 2.2 5.9 2.9s3.7 2.7 4.2 2.7 1.1 0 1.1 0" class="st1"/><circle cx="70.1" cy="42.5" r="3.9" class="st0"/><path d="M90.8 53.5s-.3-19.5 0-19.5 6.3.6 6.3.6v18.1l-6.3.8zM90.7 35.7h-1.5s-7.6-5.2-9.5-5.6c-1.9-.4-7.2-.3-8.9-.3-1.7 0-2.3 1.2-2.3 2.6 0 1.4 1.2 2 1.7 2s5.1 0 5.1 0 1.9 4.6 4.8 5.8" class="st5"/><path d="M62.5 34.9h-4.8c-1.1 0-1.9-.9-1.9-1.9 0-1.1.9-1.9 1.9-1.9h4.8c1.1 0 1.9.9 1.9 1.9 0 1-.9 1.9-1.9 1.9zM61.6 39.8H56c-1.1 0-1.9-.9-1.9-1.9 0-1.1.9-1.9 1.9-1.9h5.5c1.1 0 1.9.9 1.9 1.9.1 1-.8 1.9-1.8 1.9zM61.6 44.6H56c-1.1 0-1.9-.9-1.9-1.9 0-1.1.9-1.9 1.9-1.9h5.5c1.1 0 1.9.9 1.9 1.9.1 1-.8 1.9-1.8 1.9zM61.6 49.5h-3.7c-1.1 0-1.9-.9-1.9-1.9 0-1.1.9-1.9 1.9-1.9h3.7c1.1 0 1.9.9 1.9 1.9 0 1-.9 1.9-1.9 1.9z" class="st6"/><path d="M62.5 34.9h-4.8c-1.1 0-1.9-.9-1.9-1.9 0-1.1.9-1.9 1.9-1.9h4.8c1.1 0 1.9.9 1.9 1.9 0 1-.9 1.9-1.9 1.9zM61.6 39.8H56c-1.1 0-1.9-.9-1.9-1.9 0-1.1.9-1.9 1.9-1.9h5.5c1.1 0 1.9.9 1.9 1.9.1 1-.8 1.9-1.8 1.9zM61.6 44.6H56c-1.1 0-1.9-.9-1.9-1.9 0-1.1.9-1.9 1.9-1.9h5.5c1.1 0 1.9.9 1.9 1.9.1 1-.8 1.9-1.8 1.9zM61.6 49.5h-3.7c-1.1 0-1.9-.9-1.9-1.9 0-1.1.9-1.9 1.9-1.9h3.7c1.1 0 1.9.9 1.9 1.9 0 1-.9 1.9-1.9 1.9zM90.7 51.8h-1.6s-4.6 4.5-9 4.5" class="st5"/></svg>